<svg width="72" height="25" viewBox="0 0 72 25" fill="none" xmlns="http://www.w3.org/2000/svg">
<path opacity="0.2" d="M0.897323 3.03597L1.79716 2.80469H18.4442L19.344 3.03597L19.7939 3.7298V20.6131L19.119 21.5382L2.92196 22.0008L1.5722 21.5382L0.672363 20.6131V4.42363L0.897323 3.03597Z" fill="#FFD699"/>
<path d="M1.62385 2.5C1.19571 2.5 0.826233 2.74313 0.629908 3.09811C0.456226 3.28238 0.317503 3.49653 0.237281 3.72129C-0.0178397 4.43591 0.0642536 4.14059 0.000254395 18.6668C-0.00485263 19.8242 0.0589522 21.1418 0.930521 21.8858C1.63301 22.4855 2.63576 22.5071 3.55283 22.4989C8.57185 22.4543 13.2003 22.5078 18.2193 22.4632C18.7767 22.4583 18.8444 22.2831 19.1191 22.0006C19.3441 21.7694 19.3441 21.7694 19.4613 21.655L19.5355 21.492C19.8158 21.2796 20 20.9429 20 20.5608V3.66447C20 3.0223 19.4866 2.5 18.8553 2.5H1.62385ZM19.4613 3.66447V20.5608C19.4613 20.9008 19.1895 21.1773 18.8553 21.1773H1.62385C1.28963 21.1773 1.01784 20.9008 1.01784 20.5608V3.66447C1.01784 3.32448 1.28963 3.04799 1.62385 3.04799H18.8553C19.1895 3.04799 19.4613 3.32448 19.4613 3.66447Z" fill="#FFD699"/>
<path d="M18.1922 5.16005C18.4538 5.15399 18.6838 5.01628 18.7926 4.80008C18.9815 4.42572 18.7468 3.96436 18.3864 3.83254C18.3342 3.7594 18.2441 3.71659 18.1522 3.72159C17.9116 3.73728 17.6938 3.88712 17.5697 4.12223C17.2905 4.65075 17.6743 5.19105 18.1922 5.16005Z" fill="#FFD699"/>
<path d="M2.93782 4.28776C2.64018 4.03469 2.25839 4.0591 2.1228 4.1768C1.9417 4.21099 1.68801 4.49742 1.69144 4.88783C1.69668 5.48518 2.24829 5.83273 2.77615 5.57888C3.30455 5.32414 3.38687 4.66945 2.93782 4.28776Z" fill="#FFD699"/>
<path d="M2.11655 18.903C1.93527 18.8942 1.66799 19.0585 1.56841 19.3696C1.42271 19.8248 1.72143 20.2509 2.18529 20.2509C2.44914 20.2509 2.69585 20.1126 2.80777 19.8748C2.90281 19.6725 2.88423 19.4285 2.75762 19.2219C2.58333 18.9381 2.26874 18.8507 2.11655 18.903Z" fill="#FFD699"/>
<path d="M18.6113 19.2788C18.1434 18.9584 17.5727 19.2611 17.5596 19.8325C17.5502 20.2399 17.8361 20.545 18.2062 20.545C18.8877 20.545 19.2143 19.6909 18.6113 19.2788Z" fill="#FFD699"/>
<path d="M7.78889 16.7323C7.66459 16.8855 7.48778 16.9909 7.29028 17.0293C7.09277 17.0678 6.88755 17.0369 6.71154 16.9421C6.5678 16.8703 6.45732 16.7488 6.40212 16.6018C6.34692 16.4548 6.35106 16.2931 6.4137 16.1489C7.05498 14.9206 7.94673 13.4841 8.57549 12.5116C8.89319 12.0203 9.00546 11.9313 8.65217 11.482C8.3583 11.1083 7.96827 10.6496 7.71807 10.3568C7.28351 9.84855 6.65607 9.14786 6.49008 8.77199C6.4211 8.58513 6.41578 8.38185 6.47489 8.19186C6.534 8.00187 6.65445 7.83514 6.81861 7.71604C7.15691 7.47589 7.47045 7.55699 7.85525 7.92581C8.10488 8.16506 9.56359 9.95868 9.7645 10.2132C10.0071 10.5205 10.068 10.5125 10.3247 10.169C10.5854 9.8201 11.6238 8.53532 11.891 8.19104C12.3711 7.57223 12.9187 7.3191 13.2629 7.63852C13.3445 7.69994 13.4128 7.77634 13.4637 7.86333C13.5147 7.95031 13.5474 8.04618 13.56 8.14542C13.5725 8.24465 13.5646 8.34531 13.5368 8.4416C13.509 8.53789 13.4618 8.62792 13.3978 8.70652C12.9217 9.42959 12.3369 10.0848 11.8084 10.7717C11.6606 10.9428 11.525 11.1233 11.4025 11.3122C11.1404 11.7653 11.1122 11.7848 11.3859 12.2389C11.5761 12.5545 11.9221 12.9885 12.1207 13.2616C12.6687 14.0154 13.2629 14.8428 13.8702 15.5508C14.3897 16.1563 13.8671 16.6537 13.5732 16.8004C13.397 16.8999 13.1875 16.9289 12.9895 16.881C12.7915 16.8332 12.6207 16.7124 12.5137 16.5444C12.1582 16.0885 11.8667 15.5813 11.5359 15.1082C11.2657 14.7218 10.9345 14.1406 10.6462 13.7638C10.2077 13.1907 10.1244 12.9804 9.93637 13.3034C9.28434 14.4233 8.14528 16.2667 7.78889 16.7323Z" fill="#FFD699"/>
<path d="M36.1758 8.24414C35.4141 7.49414 34.5703 7.11914 33.6445 7.11914C32.7656 7.11914 31.9219 7.45312 31.1133 8.12109C30.0938 8.96484 29.3906 10.0547 29.0039 11.3906C28.8633 11.8711 28.793 12.2695 28.793 12.5859C28.793 12.9023 28.8047 13.1484 28.8281 13.3242C28.8281 14.4844 29.2207 15.375 30.0059 15.9961C30.7441 16.5703 31.6875 16.8574 32.8359 16.8574C34.4062 16.7285 35.9121 16.125 37.3535 15.0469C37.752 14.7422 38.1738 14.4492 38.6191 14.168C38.7832 14.168 38.9473 14.1914 39.1113 14.2383C39.2871 14.2852 39.375 14.4199 39.375 14.6426C38.2148 15.6504 37.2363 16.377 36.4395 16.8223C34.9629 17.6191 33.627 18.0176 32.4316 18.0176C32.3496 18.0176 32.2734 18.0176 32.2031 18.0176C30.9023 18.0176 29.7891 17.6133 28.8633 16.8047C27.8789 15.9492 27.3867 14.8828 27.3867 13.6055C27.3867 12.6445 27.5566 11.7246 27.8965 10.8457C28.248 9.9668 28.7227 9.19336 29.3203 8.52539C29.9297 7.8457 30.6445 7.30664 31.4648 6.9082C32.2969 6.50977 33.1875 6.31055 34.1367 6.31055C34.9453 6.31055 35.4727 6.42188 35.7188 6.64453C36.0234 6.91406 36.1758 7.44727 36.1758 8.24414ZM40.5352 11.1797C40.5117 10.5469 40.4883 9.98438 40.4648 9.49219C40.4414 8.98828 40.4238 8.61914 40.4121 8.38477C40.4121 8.13867 40.3184 7.54688 40.1309 6.60938C40.2363 6.46875 40.3359 6.33398 40.4297 6.20508C40.5352 6.07617 40.6816 6.01172 40.8691 6.01172C41.2793 6.01172 41.5957 7.74023 41.8184 11.1973C41.9355 13.2012 41.9941 15.2051 41.9941 17.209C41.9941 17.748 41.6191 18.0176 40.8691 18.0176L40.7285 18C40.7285 17.3906 40.7109 16.6113 40.6758 15.6621C40.6406 14.7129 40.6113 13.8867 40.5879 13.1836C40.5762 12.4805 40.5586 11.8125 40.5352 11.1797ZM43.4883 14.6602C43.4883 13.2773 44.0859 12.1641 45.2812 11.3203C46.2305 10.6523 47.373 10.248 48.709 10.1074C48.7793 10.1074 48.9434 10.1074 49.2012 10.1074C49.459 10.1074 49.8047 10.1836 50.2383 10.3359C51.1992 10.6641 51.8555 11.2441 52.207 12.0762C52.3477 12.4043 52.418 12.6855 52.418 12.9199C52.418 13.1426 52.4121 13.3008 52.4004 13.3945C52.4004 14.8594 51.8438 16.0137 50.7305 16.8574C49.6992 17.6309 48.4102 18.0176 46.8633 18.0176C45.75 18.0176 44.9062 17.7598 44.332 17.2441C43.7695 16.7285 43.4883 15.8672 43.4883 14.6602ZM44.7012 15.082C44.7012 15.8086 44.8945 16.3008 45.2812 16.5586C45.5742 16.7461 46.0664 16.8398 46.7578 16.8398C47.4492 16.8398 48.0586 16.7871 48.5859 16.6816C49.1133 16.5762 49.582 16.3945 49.9922 16.1367C50.8711 15.5742 51.3105 14.7012 51.3105 13.5176C51.3105 12.8145 51.123 12.2402 50.748 11.7949C50.3379 11.3145 49.7988 11.0742 49.1309 11.0742C48.6738 11.1562 48.2109 11.2441 47.7422 11.3379C47.2852 11.4316 46.8516 11.6133 46.4414 11.8828C45.5508 12.457 44.9707 13.5234 44.7012 15.082ZM59.1855 13.4648C60.4746 13.4648 61.1191 13.793 61.1191 14.4492C61.1191 14.9414 60.7617 15.5156 60.0469 16.1719C58.9805 17.1445 57.5449 17.9238 55.7402 18.5098C55.6582 18.5098 55.5645 18.4277 55.459 18.2637C55.3652 18.0996 55.2891 17.9766 55.2305 17.8945C55.1836 17.8008 55.1484 17.7422 55.125 17.7188C56.4727 17.2734 57.5801 16.7344 58.4473 16.1016C59.0332 15.6797 59.3262 15.334 59.3262 15.0645C59.3262 14.7949 58.9805 14.6602 58.2891 14.6602C57.5977 14.6602 56.584 14.8242 55.248 15.1523C54.6387 15.1289 54.1113 14.9121 53.666 14.502C53.2793 14.1387 53.0859 13.7754 53.0859 13.4121C53.0859 13.0371 53.1914 12.6973 53.4023 12.3926C53.6133 12.0762 53.8945 11.7832 54.2461 11.5137C54.5977 11.2441 55.0078 10.998 55.4766 10.7754C56.625 10.2246 57.8145 9.94922 59.0449 9.94922C59.4082 9.94922 59.7598 9.98438 60.0996 10.0547C60.3809 10.0547 60.5449 10.1777 60.5918 10.4238C60.6387 10.6699 60.6621 11.0742 60.6621 11.6367C59.9707 11.3203 59.1914 11.1621 58.3242 11.1621C57.2461 11.1621 56.3555 11.3789 55.6523 11.8125C54.9258 12.2344 54.5508 12.7852 54.5273 13.4648C54.5273 13.793 54.7676 13.957 55.248 13.957L56.5312 13.8164C57.6328 13.582 58.5176 13.4648 59.1855 13.4648ZM65.7949 16.7695C66.8262 16.7695 68.3789 16.3008 70.4531 15.3633C70.582 15.3633 70.6875 15.4102 70.7695 15.5039C70.8516 15.5859 70.8926 15.6855 70.8926 15.8027C70.4238 16.5996 69.5273 17.2207 68.2031 17.666C66.8789 18.1113 65.6426 18.1875 64.4941 17.8945C63.1934 17.5547 62.4023 16.8223 62.1211 15.6973C62.0977 15.4746 62.0859 15.1758 62.0859 14.8008C62.0859 14.4258 62.1797 13.9336 62.3672 13.3242C62.5664 12.7031 62.9004 12.1172 63.3691 11.5664C63.8379 11.0156 64.3887 10.582 65.0215 10.2656C65.6543 9.94922 66.3281 9.79102 67.043 9.79102C67.7227 9.79102 68.4844 10.0254 69.3281 10.4941C69.7266 10.7168 70.043 10.9688 70.2773 11.25C70.5117 11.5312 70.6289 11.8184 70.6289 12.1113C70.6289 12.1934 70.623 12.2754 70.6113 12.3574C70.5879 13.0723 70.2422 13.5234 69.5742 13.7109C69.2812 13.793 68.9414 13.834 68.5547 13.834L66.0234 13.7285C65.1797 13.7285 64.5352 13.9102 64.0898 14.2734C63.832 14.4727 63.6504 14.7715 63.5449 15.1699C63.8379 16.2363 64.5879 16.7695 65.7949 16.7695ZM68.9238 11.3379C68.666 11.1504 68.3965 11.0156 68.1152 10.9336C67.834 10.8516 67.5996 10.8105 67.4121 10.8105C67.2246 10.8105 66.9199 10.875 66.498 11.0039C66.0762 11.1211 65.7012 11.2559 65.373 11.4082C64.5645 11.7832 64.1602 12.1758 64.1602 12.5859C65.0977 12.668 65.8008 12.709 66.2695 12.709C67.5703 12.709 68.4492 12.5977 68.9062 12.375C69.1875 12.2578 69.3281 12.1113 69.3281 11.9355C69.3281 11.7246 69.1934 11.5254 68.9238 11.3379Z" fill="#FFD699"/>
</svg>
